<svg width="152" height="77" viewBox="0 0 152 77" fill="none" xmlns="http://www.w3.org/2000/svg">
<path d="M101.828 29.3021C101.677 29.9631 101.483 30.4457 101.25 30.7509C101.016 31.0549 100.723 31.2662 100.368 31.3828C99.8885 31.5504 99.4138 31.4716 98.9471 31.4716H92.4697L97.6842 24.2882L96.9416 23.301L92.4901 17.1357H98.6808C100.077 17.1357 100.308 17.0748 100.58 17.2613C100.841 17.4402 100.947 17.6951 101.022 17.9634C101.097 18.2314 101.123 18.5389 101.165 18.9011H101.524L101.279 15.7129H89.4512V16.0627L95.6492 24.4809L89.4512 32.9576V33.3072H101.6L102.188 29.38L101.828 29.3021Z" fill="black"/>
<path d="M19.7341 30.5045C20.2889 31.1413 20.9362 31.6155 21.6783 31.9252C22.4203 32.2349 23.2401 32.3905 24.1394 32.3905C25.0238 32.3905 25.8436 32.2349 26.6006 31.9252C27.3561 31.6155 28.0154 31.1374 28.5774 30.4923C29.1397 29.848 29.579 29.0317 29.892 28.0439C30.2071 27.057 30.3643 25.8855 30.3643 24.5311C30.3643 23.3556 30.2489 22.3268 30.0165 21.4454C29.7842 20.5643 29.4501 19.7972 29.0167 19.1437L19.7341 30.5045ZM28.6122 18.6056C28.0575 17.92 27.3979 17.4265 26.6336 17.1243C25.869 16.8221 25.0387 16.6708 24.1394 16.6708C23.2699 16.6708 22.4577 16.826 21.7008 17.1366C20.9438 17.4463 20.2842 17.9236 19.7222 18.5687C19.1601 19.2138 18.7226 20.0292 18.4078 21.017C18.0928 22.0048 17.9356 23.1758 17.9356 24.5311C17.9356 25.7224 18.0601 26.771 18.3073 27.6764C18.5546 28.5829 18.8948 29.3462 19.3294 29.9664L28.6122 18.6056ZM15.7336 24.5311C15.7336 23.1434 15.9391 21.9074 16.3512 20.8213C16.7636 19.7354 17.3405 18.8178 18.0826 18.0668C18.8243 17.3156 19.7119 16.7445 20.746 16.3524C21.7788 15.9612 22.9102 15.7651 24.1394 15.7651C26.3261 15.7651 28.125 16.3365 29.534 17.4787C29.6673 17.3318 29.8368 17.1366 30.039 16.8914C30.2416 16.6468 30.4438 16.398 30.6461 16.1449C30.8483 15.8919 31.0283 15.6515 31.1859 15.4225C31.3431 15.194 31.4437 15.0303 31.4884 14.9326C31.6684 15.1617 31.8783 15.3568 32.1182 15.5199C32.0282 15.5861 31.8932 15.716 31.7134 15.912C31.5334 16.1081 31.3431 16.3248 31.1409 16.5607C30.9386 16.7976 30.7361 17.038 30.5338 17.2835C30.3313 17.5278 30.1621 17.7323 30.0271 17.8954C30.8363 18.6463 31.4615 19.5727 31.9037 20.6744C32.3459 21.7758 32.5677 23.0618 32.5677 24.5311C32.5677 25.9185 32.3608 27.1545 31.9487 28.24C31.5363 29.3255 30.9608 30.244 30.2191 30.9944C29.477 31.7453 28.5894 32.3041 27.5554 32.6717C26.5211 33.0392 25.3818 33.223 24.1394 33.223C22.0261 33.223 20.2514 32.6924 18.8123 31.6308C18.6624 31.8107 18.4873 32.019 18.2848 32.2559C18.0826 32.4927 17.8832 32.7247 17.6883 32.9532C17.4934 33.1822 17.318 33.4067 17.1608 33.6265C17.0032 33.8471 16.8863 34.0309 16.813 34.1775C16.6467 33.9485 16.4383 33.7533 16.1834 33.5902C16.2583 33.5243 16.3813 33.3981 16.5534 33.2107C16.7259 33.0221 16.9132 32.8186 17.1158 32.5985C17.318 32.3782 17.5235 32.1375 17.733 31.8761C17.9432 31.6155 18.1305 31.3865 18.2953 31.1904C17.4858 30.4563 16.858 29.5338 16.4082 28.4238C15.9587 27.3137 15.7336 26.0162 15.7336 24.5311Z" fill="black"/>
<path d="M1.64878 12.4508C1.5874 10.8548 1.52048 9.22668 1.44653 7.56738C2.54983 7.61775 3.6464 7.66151 4.73712 7.69929C5.82755 7.73706 6.92471 7.75595 8.02771 7.75595C9.13042 7.75595 10.2457 7.73706 11.3732 7.69929C12.5005 7.66151 13.7263 7.61775 15.0499 7.56738C14.976 7.94421 14.9394 8.32164 14.9394 8.69876C14.9394 9.07559 14.976 9.45272 15.0499 9.83015C14.3876 9.7543 13.5915 9.68565 12.6598 9.6224C11.7281 9.56004 10.7791 9.50938 9.81051 9.4716C8.84225 9.43413 7.9111 9.40265 7.01677 9.37747C6.12186 9.35259 5.38068 9.3397 4.79236 9.3397C4.76781 10.2199 4.7491 11.0623 4.73712 11.866C4.72455 12.6712 4.71842 13.4758 4.71842 14.2795C4.71842 15.16 4.72455 15.9712 4.73712 16.7123C4.7491 17.4542 4.75583 18.2274 4.75583 19.0314C6.37321 19.0314 7.97247 19.0065 9.55303 18.9558C11.1345 18.9061 12.6969 18.8054 14.2412 18.6543C14.143 19.0314 14.0936 19.4088 14.0936 19.7856C14.0936 20.1628 14.143 20.5399 14.2412 20.9173C13.6281 20.8415 12.936 20.7851 12.1635 20.747C11.3919 20.7093 10.5882 20.6784 9.75586 20.6532C8.92233 20.6283 8.07652 20.6154 7.21902 20.6154H4.75583V23.8207C4.75583 25.4803 4.78593 27.1144 4.8473 28.7228C4.9081 30.3326 4.9759 31.9164 5.04984 33.4746C4.48578 33.4243 3.88547 33.3994 3.24804 33.3994C2.61062 33.3994 2.01031 33.4243 1.44653 33.4746C1.52048 31.9164 1.5874 30.3326 1.64878 28.7228C1.71015 27.1144 1.74055 25.4803 1.74055 23.8207V17.3346C1.74055 15.6753 1.71015 14.0475 1.64878 12.4508Z" fill="black"/>
<path d="M35.606 27.779C35.606 26.4471 35.6241 25.3094 35.6609 24.366C35.6977 23.4234 35.7161 22.4875 35.7161 21.557C35.7161 20.6771 35.7097 19.722 35.6977 18.6908C35.6852 17.6604 35.667 16.6166 35.6428 15.561C36.2554 15.6866 36.7695 15.749 37.1868 15.749C37.5784 15.749 38.0814 15.6866 38.694 15.561C38.5716 17.0692 38.4795 18.7225 38.4187 20.52C38.3567 22.3178 38.3266 24.1588 38.3266 26.0447C38.3266 27.3521 38.4365 28.3516 38.6575 29.0426C38.8781 29.7339 39.1476 30.2558 39.4665 30.6074C39.8093 31.0098 40.2442 31.3431 40.7717 31.6072C41.2981 31.8707 41.9168 32.0026 42.6279 32.0026C43.6575 32.0026 44.5153 31.7706 45.2015 31.3053C45.8872 30.8401 46.3899 30.2684 46.7087 29.5891C46.8803 29.1622 47.015 28.7974 47.1135 28.4958C47.2108 28.1942 47.2909 27.7919 47.3523 27.2891C47.4131 26.7861 47.4499 26.1077 47.4625 25.2524C47.4745 24.398 47.4809 23.2289 47.4809 21.7453V18.5778C47.4809 18.025 47.4745 17.497 47.4625 16.9934C47.4499 16.4913 47.4318 16.0131 47.4075 15.561C47.677 15.6114 47.9339 15.6552 48.1794 15.6929C48.4243 15.7304 48.6815 15.749 48.9516 15.749C49.221 15.749 49.4785 15.7304 49.724 15.6929C49.9683 15.6552 50.2136 15.6114 50.4588 15.561C50.3363 17.5216 50.2624 19.4138 50.2381 21.2362C50.2136 23.0592 50.2016 24.9886 50.2016 27.025C50.2016 28.1564 50.2136 29.2626 50.2381 30.3436C50.2624 31.4247 50.2995 32.4682 50.3489 33.4734C49.8582 33.423 49.38 33.3981 48.915 33.3981C48.4489 33.3981 47.9713 33.423 47.4809 33.4734C47.5052 33.247 47.5239 33.0087 47.5364 32.7572C47.5484 32.506 47.5545 32.2419 47.5545 31.9652V30.3436H47.4809C46.8435 31.5503 46.0225 32.4364 45.018 33.0021C44.0123 33.5678 42.9219 33.8511 41.7455 33.8511C39.8338 33.8511 38.3322 33.3289 37.2423 32.2856C36.151 31.2424 35.606 29.7402 35.606 27.779Z" fill="black"/>
<path d="M64.7642 18.5932C64.0528 17.6258 63.0729 17.1414 61.8229 17.1414C60.107 17.1414 58.8506 17.6825 58.0541 18.7629C57.2577 19.8442 56.8597 21.3653 56.8597 23.3265V26.5315C56.8597 27.6628 56.8778 28.8506 56.9143 30.0956C56.9517 31.34 57.0306 32.4651 57.1537 33.4702C56.5896 33.4199 56.0381 33.395 55.4992 33.395C54.9597 33.395 54.4082 33.4199 53.845 33.4702C53.9671 32.4651 54.0472 31.34 54.0838 30.0956C54.1206 28.8506 54.1393 27.6628 54.1393 26.5315V22.6097C54.1393 21.478 54.1206 20.2903 54.0838 19.0459C54.0472 17.8015 53.9671 16.6386 53.845 15.5579C54.5309 15.6835 55.0824 15.7459 55.4992 15.7459C55.6953 15.7459 55.9095 15.7273 56.1427 15.6898C56.3754 15.652 56.651 15.6083 56.9698 15.5579C56.8962 16.5634 56.8597 17.5694 56.8597 18.5746H56.933C57.619 17.4939 58.4405 16.6578 59.3962 16.0666C60.3525 15.4764 61.492 15.1802 62.8154 15.1802C63.5013 15.1802 64.194 15.2815 64.8928 15.4821C65.5913 15.6835 66.2223 16.0292 66.7864 16.519C67.3499 17.0095 67.8093 17.6756 68.165 18.518C68.5198 19.3607 68.6978 20.4354 68.6978 21.7421C68.6978 22.8234 68.6732 23.9359 68.6244 25.0796C68.575 26.2242 68.5511 27.4365 68.5511 28.7184V31.1703C68.5511 31.5726 68.5566 31.9686 68.5692 32.358C68.5812 32.7478 68.5999 33.1186 68.6244 33.4702C68.1337 33.4199 67.6187 33.395 67.0804 33.395C66.5654 33.395 66.0627 33.4199 65.5726 33.4702C65.622 32.1635 65.6767 30.8181 65.7386 29.4355C65.7994 28.0529 65.8301 26.6325 65.8301 25.174V22.8735C65.8301 20.9882 65.4744 19.5618 64.7642 18.5932Z" fill="black"/>
<path d="M74.0576 24.9096C74.0576 26.4182 74.2102 27.6626 74.5171 28.6428C74.8231 29.6231 75.2159 30.4098 75.6934 31.0003C76.1716 31.5912 76.7166 31.9992 77.3295 32.2255C77.9421 32.4519 78.5433 32.5649 79.1313 32.5649C80.0873 32.5649 80.9083 32.32 81.5945 31.8295C82.2801 31.3397 82.8503 30.6985 83.3039 29.9064C83.7572 29.1144 84.0881 28.216 84.2968 27.2099C84.5046 26.2047 84.6092 25.1992 84.6092 24.1929C84.6092 21.7793 84.1556 19.9383 83.249 18.6688C82.3415 17.3992 81.0062 16.7642 79.2415 16.7642C78.3591 16.7642 77.5931 16.9714 76.9437 17.3863C76.2937 17.8012 75.7542 18.3801 75.3257 19.1211C74.8973 19.8631 74.5778 20.7301 74.3703 21.7233C74.1614 22.7164 74.0576 23.7783 74.0576 24.9096ZM84.499 29.8872C84.3023 30.2901 84.0396 30.7236 83.7084 31.1886C83.3779 31.6542 82.9605 32.0879 82.4581 32.4897C81.956 32.892 81.3613 33.2193 80.6756 33.4699C79.9885 33.7212 79.1921 33.8477 78.2858 33.8477C77.3538 33.8477 76.4407 33.6834 75.5467 33.3569C74.6518 33.0305 73.8554 32.4963 73.1569 31.7543C72.4581 31.0132 71.894 30.0569 71.4658 28.8884C71.0365 27.7192 70.8223 26.3183 70.8223 24.6833C70.8223 23.075 71.0549 21.6795 71.5211 20.4974C71.9861 19.316 72.5928 18.3288 73.3404 17.5374C74.088 16.7451 74.9338 16.1548 75.8775 15.7648C76.8207 15.3753 77.7711 15.1799 78.7268 15.1799C81.4472 15.1799 83.3346 16.4378 84.3885 18.9512H84.4622V15.2557C84.4622 14.3006 84.4557 13.3389 84.4438 12.3709C84.4312 11.4035 84.4189 10.4793 84.4069 9.59913C84.3944 8.71927 84.3824 7.88947 84.3704 7.11033C84.3578 6.3312 84.3391 5.6396 84.3149 5.03613C84.6092 5.0865 84.8906 5.13056 85.1607 5.16804C85.4302 5.20581 85.6996 5.2244 85.9697 5.2244C86.2391 5.2244 86.5025 5.20581 86.7599 5.16804C87.0174 5.13056 87.305 5.0865 87.6242 5.03613C87.5502 5.84105 87.4889 7.00361 87.4403 8.52441C87.3909 10.0455 87.3483 11.7237 87.3114 13.5587C87.2749 15.3939 87.2436 17.2799 87.2194 19.2153C87.1948 21.1513 87.1828 22.9239 87.1828 24.5328C87.1828 26.2671 87.1948 27.8265 87.2194 29.2088C87.2436 30.5917 87.2682 32.0127 87.2927 33.4699C86.8026 33.4196 86.3245 33.3947 85.8595 33.3947C85.4182 33.3947 84.952 33.4196 84.4622 33.4699L84.5724 29.8872H84.499Z" fill="black"/>
<path d="M112.554 18.2353C112.199 18.1094 111.837 18.0464 111.469 18.0464C110.881 18.0464 110.354 18.1852 109.889 18.4613C109.423 18.738 109.031 19.1088 108.713 19.5741C108.394 20.0394 108.148 20.5922 107.977 21.2331C107.805 21.874 107.719 22.5596 107.719 23.2881V27.4365C107.719 29.1213 107.726 30.4101 107.738 31.3022C107.75 32.195 107.793 32.918 107.867 33.4702C107.376 33.4199 106.886 33.395 106.396 33.395C105.857 33.395 105.342 33.4199 104.852 33.4702C104.926 32.6165 104.968 31.453 104.98 29.982C104.992 28.5112 104.999 26.7077 104.999 24.5706V23.364C104.999 22.3831 104.992 21.2523 104.98 19.9695C104.968 18.6876 104.926 17.2169 104.852 15.5579C105.121 15.6083 105.378 15.652 105.624 15.6898C105.869 15.7273 106.126 15.7459 106.396 15.7459C106.617 15.7459 106.849 15.7273 107.095 15.6898C107.339 15.652 107.597 15.6083 107.867 15.5579C107.768 16.4629 107.713 17.1791 107.701 17.707C107.689 18.2353 107.683 18.738 107.683 19.2156L107.756 19.2533C109.202 16.5382 110.82 15.1802 112.609 15.1802C112.83 15.1802 113.02 15.1937 113.179 15.2185C113.338 15.2437 113.54 15.3067 113.786 15.4068C113.663 15.7084 113.589 16.1674 113.565 16.7831C113.54 17.3995 113.528 17.9589 113.528 18.4613L113.271 18.6499C113.148 18.4994 112.909 18.3612 112.554 18.2353Z" fill="black"/>
<path d="M25.6585 44.2632C25.5972 42.6671 25.5302 41.039 25.4563 39.3794C25.7746 39.4301 26.0814 39.4738 26.3755 39.5116C26.6695 39.5491 26.9638 39.5683 27.2578 39.5683C27.5518 39.5683 27.8461 39.5491 28.1401 39.5116C28.4342 39.4738 28.7405 39.4301 29.0596 39.3794C28.9857 41.039 28.9179 42.6671 28.8571 44.2632C28.7957 45.8598 28.7656 47.4873 28.7656 49.1469C28.7656 52.3144 28.7776 55.0616 28.8021 57.3865C28.8264 59.7122 28.8509 61.793 28.8758 63.6279C30.6159 63.6279 32.2821 63.6088 33.8758 63.5713C35.4686 63.5335 37.1845 63.389 39.0231 63.1375C38.8998 63.5902 38.839 63.9673 38.839 64.2689C38.839 64.5459 38.8998 64.8852 39.0231 65.2869C37.895 65.2363 36.7677 65.2117 35.6405 65.2117H28.8571C27.7666 65.2117 26.6327 65.2363 25.4563 65.2869C25.5302 63.7287 25.5972 62.1446 25.6585 60.5354C25.7196 58.9267 25.7503 57.2923 25.7503 55.633V49.1469C25.7503 47.4873 25.7196 45.8598 25.6585 44.2632Z" fill="black"/>
<path d="M41.3346 54.4306C41.3346 53.2992 41.3161 52.1118 41.2793 50.8674C41.2425 49.6227 41.1627 48.4598 41.0405 47.3788C41.7262 47.5047 42.2777 47.5671 42.6945 47.5671C43.1115 47.5671 43.663 47.5047 44.3492 47.3788C44.2265 48.4598 44.147 49.6227 44.1105 50.8674C44.0736 52.1118 44.0552 53.2992 44.0552 54.4306V58.3526C44.0552 59.484 44.0736 60.6718 44.1105 61.9168C44.147 63.1609 44.2265 64.2862 44.3492 65.2914C43.7852 65.2408 43.2337 65.2162 42.6945 65.2162C42.1555 65.2162 41.604 65.2408 41.0405 65.2914C41.1627 64.2862 41.2425 63.1609 41.2793 61.9168C41.3161 60.6718 41.3346 59.484 41.3346 58.3526V54.4306ZM40.8196 40.8172C40.8196 40.2892 41.0037 39.8369 41.3714 39.4591C41.7387 39.0823 42.1804 38.894 42.6945 38.894C43.2094 38.894 43.6507 39.0823 44.0184 39.4591C44.3858 39.8369 44.5699 40.2892 44.5699 40.8172C44.5699 41.3451 44.3858 41.7974 44.0184 42.1746C43.6507 42.552 43.2094 42.7403 42.6945 42.7403C42.1804 42.7403 41.7387 42.552 41.3714 42.1746C41.0037 41.7974 40.8196 41.3451 40.8196 40.8172Z" fill="black"/>
<path d="M58.9121 52.9601C58.9121 51.3764 58.5447 50.1698 57.8091 49.34C57.0741 48.5102 56.1052 48.0956 54.9046 48.0956C53.5815 48.0956 52.5519 48.5545 51.8168 49.4719C51.0812 50.3898 50.7135 51.6159 50.7135 53.149C50.7135 54.7328 51.0505 55.9838 51.7248 56.9014C52.3984 57.8193 53.4462 58.2777 54.8681 58.2777C55.5788 58.2777 56.1853 58.1332 56.688 57.8439C57.1904 57.5552 57.6071 57.1652 57.9377 56.6748C58.2688 56.1843 58.5134 55.6192 58.6733 54.9777C58.8323 54.3364 58.9121 53.6646 58.9121 52.9601ZM60.8977 69.2893C60.8977 67.7811 60.4684 66.725 59.6106 66.1215C58.7522 65.5181 57.3315 65.2165 55.3462 65.2165C53.5082 65.2165 52.086 65.5238 51.0812 66.1404C50.0761 66.7565 49.5737 67.8687 49.5737 69.4776C49.5737 70.3323 49.7146 71.0613 49.9966 71.6648C50.2781 72.2683 50.6583 72.7587 51.1364 73.1355C51.6146 73.513 52.1842 73.7891 52.8459 73.9653C53.5082 74.141 54.2184 74.2295 54.9785 74.2295C55.7136 74.2295 56.436 74.1287 57.1474 73.9276C57.8579 73.7261 58.4895 73.4242 59.041 73.0225C59.5925 72.6205 60.0394 72.1109 60.3828 71.4951C60.7256 70.8788 60.8977 70.1434 60.8977 69.2893ZM47.8459 53.149C47.8459 52.0929 48.0297 51.1821 48.3974 50.4147C48.765 49.6484 49.2736 49.0135 49.9233 48.5102C50.5724 48.008 51.3206 47.6309 52.1655 47.3791C53.0113 47.1282 53.9121 47.002 54.8681 47.002C55.3336 47.002 55.7808 47.0151 56.2098 47.04C56.6389 47.0652 57.1842 47.103 57.8459 47.153C58.4094 47.2034 58.9121 47.2409 59.3531 47.2658C59.7944 47.2909 60.1495 47.3035 60.4196 47.3035C61.7921 47.3035 62.7846 47.2409 63.3975 47.1153C63.3729 47.2409 63.3548 47.3731 63.3428 47.5113C63.3297 47.6495 63.3241 47.7814 63.3241 47.907C63.3241 48.0332 63.3297 48.1651 63.3428 48.3027C63.3548 48.4415 63.3729 48.5737 63.3975 48.699C62.6864 48.649 61.9943 48.5923 61.3206 48.5293C60.6458 48.467 59.9786 48.4226 59.3166 48.3971L59.2429 48.4724C60.0028 48.9008 60.6154 49.5606 61.0813 50.4525C61.5466 51.3449 61.7801 52.2691 61.7801 53.2242C61.7801 55.1099 61.1605 56.5872 59.9233 57.655C58.6853 58.7244 57.0244 59.258 54.9414 59.258C54.598 59.258 54.2616 59.2457 53.9308 59.2202C53.5996 59.1956 53.2627 59.1827 52.9198 59.1827C52.4782 59.1827 52.0676 59.3467 51.6879 59.6732C51.3074 60.0002 51.1177 60.4145 51.1177 60.9176C51.1177 61.5714 51.2706 62.0487 51.5775 62.3502C51.8835 62.6518 52.4537 62.8158 53.2872 62.8407C53.9729 62.8659 54.6474 62.8851 55.3094 62.8974C55.9711 62.9102 56.6447 62.9288 57.3315 62.9537C58.4582 62.9792 59.4206 63.1174 60.2173 63.3686C61.0138 63.6204 61.6635 63.9598 62.1662 64.3867C62.668 64.8148 63.0353 65.304 63.2689 65.8574C63.5015 66.4102 63.6181 67.0137 63.6181 67.6675C63.6181 68.5474 63.4527 69.4401 63.1219 70.3452C62.791 71.2502 62.2763 72.0671 61.5778 72.7962C60.879 73.5256 59.9786 74.1287 58.8756 74.6063C57.7723 75.0838 56.4492 75.3231 54.9046 75.3231C52.527 75.3231 50.6522 74.8386 49.2797 73.8709C47.9066 72.9032 47.2207 71.5767 47.2207 69.8928C47.2207 69.2384 47.337 68.6349 47.5702 68.0827C47.8032 67.5293 48.103 67.0389 48.4707 66.612C48.839 66.1839 49.2551 65.8445 49.7213 65.5933C50.1863 65.3418 50.6644 65.1541 51.1551 65.0276V64.9524C50.395 64.726 49.8186 64.3489 49.427 63.821C49.0342 63.2934 48.839 62.6653 48.839 61.9356C48.839 61.5085 48.9179 61.1187 49.0774 60.7665C49.2364 60.4145 49.439 60.1007 49.6845 59.8237C49.9288 59.5473 50.2108 59.3209 50.5297 59.145C50.848 58.9693 51.1551 58.8563 51.4492 58.8056V58.7301C50.3213 58.2276 49.439 57.5174 48.8021 56.5995C48.1641 55.6822 47.8459 54.5322 47.8459 53.149Z" fill="black"/>
<path d="M66.0698 44.9281C66.0572 43.9226 66.0385 42.9294 66.0143 41.9488C65.9897 40.9679 65.9596 40.032 65.9225 39.1396C65.8857 38.2471 65.843 37.4866 65.7942 36.8579C66.4801 36.9838 67.0316 37.0462 67.4484 37.0462C67.8652 37.0462 68.4161 36.9838 69.1029 36.8579C69.0535 37.4866 69.0108 38.2405 68.9743 39.1204C68.9375 40.0005 68.9062 40.9248 68.8822 41.8922C68.8574 42.8602 68.839 43.8345 68.8267 44.8148C68.8141 45.795 68.8089 46.7001 68.8089 47.5299V50.3961H68.8822C69.5679 49.3151 70.3894 48.4793 71.3454 47.8884C72.3014 47.2979 73.4412 47.002 74.7646 47.002C75.4503 47.002 76.1432 47.103 76.842 47.3035C77.5402 47.505 78.1715 47.8507 78.7353 48.3405C79.2991 48.8309 79.7585 49.4974 80.1142 50.3395C80.469 51.1821 80.647 52.2569 80.647 53.5636C80.647 54.6449 80.6224 55.7574 80.5736 56.9014C80.5242 58.0454 80.5 59.258 80.5 60.5402V62.9918C80.5 63.3938 80.5055 63.7901 80.5181 64.1792C80.5304 64.5693 80.5488 64.9401 80.5736 65.2917C80.0829 65.2411 79.568 65.2165 79.0296 65.2165C78.5146 65.2165 78.0119 65.2411 77.5218 65.2917C77.5709 63.985 77.6259 62.6396 77.6875 61.257C77.7486 59.8744 77.7793 58.454 77.7793 56.9955V54.695C77.7793 52.8097 77.4236 51.3833 76.7134 50.4147C76.0018 49.4473 75.0221 48.9631 73.7721 48.9631C72.0562 48.9631 70.7998 49.504 70.0034 50.5844C69.2069 51.6657 68.8089 53.1865 68.8089 55.1477C68.8089 55.8519 68.8141 56.6691 68.8267 57.599C68.839 58.5292 68.8574 59.4651 68.8822 60.4086C68.9062 61.3511 68.9375 62.2624 68.9743 63.1423C69.0108 64.0225 69.0535 64.7395 69.1029 65.2917C68.5388 65.2411 67.9873 65.2165 67.4484 65.2165C66.9089 65.2165 66.3574 65.2411 65.7942 65.2917C65.843 64.7138 65.8857 63.985 65.9225 63.1045C65.9596 62.225 65.9897 61.2944 66.0143 60.3141C66.0385 59.3332 66.0572 58.3407 66.0698 57.3349C66.0818 56.3297 66.0882 55.3989 66.0882 54.5445V47.7188C66.0882 46.8641 66.0818 45.9338 66.0698 44.9281Z" fill="black"/>
<path d="M103.933 50.4147C103.221 49.4473 102.241 48.9631 100.991 48.9631C99.2754 48.9631 98.019 49.5039 97.2226 50.5844C96.4261 51.6657 96.0281 53.1865 96.0281 55.1477V58.3529C96.0281 59.4843 96.0462 60.6721 96.083 61.9171C96.1201 63.1612 96.199 64.2865 96.3221 65.2917C95.758 65.241 95.2065 65.2165 94.6676 65.2165C94.1281 65.2165 93.5766 65.241 93.0137 65.2917C93.1358 64.2865 93.2156 63.1612 93.2524 61.9171C93.289 60.6721 93.3077 59.4843 93.3077 58.3529V54.4309C93.3077 53.2995 93.289 52.1121 93.2524 50.8677C93.2156 49.623 93.1358 48.4601 93.0137 47.3791C93.6993 47.505 94.2508 47.5673 94.6676 47.5673C94.8637 47.5673 95.0779 47.5491 95.3111 47.5113C95.5438 47.4735 95.8194 47.4297 96.1383 47.3791C96.0649 48.3849 96.0281 49.3909 96.0281 50.3961H96.1014C96.7874 49.3151 97.6089 48.4793 98.5646 47.8884C99.5209 47.2978 100.661 47.002 101.984 47.002C102.67 47.002 103.362 47.103 104.061 47.3035C104.76 47.505 105.391 47.8506 105.955 48.3405C106.518 48.8309 106.978 49.4973 107.333 50.3394C107.688 51.1821 107.866 52.2568 107.866 53.5636C107.866 54.6449 107.842 55.7574 107.793 56.9014C107.744 58.0454 107.719 59.258 107.719 60.5402V62.9918C107.719 63.3938 107.725 63.7901 107.738 64.1792C107.75 64.5692 107.768 64.9401 107.793 65.2917C107.302 65.241 106.787 65.2165 106.249 65.2165C105.734 65.2165 105.231 65.241 104.741 65.2917C104.79 63.985 104.845 62.6395 104.907 61.2569C104.968 59.8743 104.998 58.454 104.998 56.9955V54.695C104.998 52.8096 104.643 51.3833 103.933 50.4147Z" fill="black"/>
<path d="M111.453 54.4306C111.453 53.2992 111.434 52.1118 111.397 50.8674C111.361 49.6227 111.281 48.4598 111.159 47.3788C111.844 47.5047 112.396 47.5671 112.813 47.5671C113.23 47.5671 113.781 47.5047 114.467 47.3788C114.345 48.4598 114.265 49.6227 114.229 50.8674C114.192 52.1118 114.173 53.2992 114.173 54.4306V58.3526C114.173 59.484 114.192 60.6718 114.229 61.9168C114.265 63.1609 114.345 64.2862 114.467 65.2914C113.903 65.2408 113.352 65.2162 112.813 65.2162C112.274 65.2162 111.722 65.2408 111.159 65.2914C111.281 64.2862 111.361 63.1609 111.397 61.9168C111.434 60.6718 111.453 59.484 111.453 58.3526V54.4306ZM110.938 40.8172C110.938 40.2892 111.122 39.8369 111.489 39.4591C111.857 39.0823 112.298 38.894 112.813 38.894C113.328 38.894 113.769 39.0823 114.137 39.4591C114.504 39.8369 114.688 40.2892 114.688 40.8172C114.688 41.3451 114.504 41.7974 114.137 42.1746C113.769 42.552 113.328 42.7403 112.813 42.7403C112.298 42.7403 111.857 42.552 111.489 42.1746C111.122 41.7974 110.938 41.3451 110.938 40.8172Z" fill="black"/>
<path d="M128.704 50.4147C127.992 49.4473 127.012 48.9631 125.762 48.9631C124.046 48.9631 122.79 49.5039 121.994 50.5844C121.197 51.6657 120.799 53.1865 120.799 55.1477V58.3529C120.799 59.4843 120.817 60.6721 120.854 61.9171C120.891 63.1612 120.97 64.2865 121.093 65.2917C120.529 65.241 119.978 65.2165 119.438 65.2165C118.899 65.2165 118.348 65.241 117.784 65.2917C117.907 64.2865 117.987 63.1612 118.023 61.9171C118.06 60.6721 118.078 59.4843 118.078 58.3529V54.4309C118.078 53.2995 118.06 52.1121 118.023 50.8677C117.987 49.623 117.907 48.4601 117.784 47.3791C118.47 47.505 119.022 47.5673 119.438 47.5673C119.634 47.5673 119.849 47.5491 120.082 47.5113C120.315 47.4735 120.59 47.4297 120.909 47.3791C120.836 48.3849 120.799 49.3909 120.799 50.3961H120.872C121.558 49.3151 122.38 48.4793 123.335 47.8884C124.292 47.2978 125.431 47.002 126.755 47.002C127.441 47.002 128.133 47.103 128.832 47.3035C129.53 47.505 130.161 47.8506 130.726 48.3405C131.289 48.8309 131.749 49.4973 132.104 50.3394C132.459 51.1821 132.637 52.2568 132.637 53.5636C132.637 54.6449 132.613 55.7574 132.564 56.9014C132.515 58.0454 132.491 59.258 132.491 60.5402V62.9918C132.491 63.3938 132.496 63.7901 132.508 64.1792C132.521 64.5692 132.539 64.9401 132.564 65.2917C132.073 65.241 131.558 65.2165 131.02 65.2165C130.505 65.2165 130.002 65.241 129.512 65.2917C129.561 63.985 129.616 62.6395 129.678 61.2569C129.739 59.8743 129.77 58.454 129.77 56.9955V54.695C129.77 52.8096 129.414 51.3833 128.704 50.4147Z" fill="black"/>
<path d="M145.73 52.9601C145.73 51.3764 145.362 50.1698 144.626 49.34C143.891 48.5102 142.923 48.0956 141.722 48.0956C140.399 48.0956 139.369 48.5545 138.634 49.4719C137.899 50.3898 137.531 51.6159 137.531 53.149C137.531 54.7328 137.868 55.9838 138.542 56.9014C139.216 57.8193 140.264 58.2777 141.685 58.2777C142.396 58.2777 143.003 58.1332 143.506 57.8439C144.008 57.5552 144.424 57.1652 144.755 56.6748C145.086 56.1843 145.331 55.6192 145.491 54.9777C145.65 54.3364 145.73 53.6646 145.73 52.9601ZM147.715 69.2893C147.715 67.7811 147.286 66.725 146.428 66.1215C145.57 65.5181 144.149 65.2165 142.164 65.2165C140.325 65.2165 138.904 65.5238 137.899 66.1404C136.893 66.7565 136.391 67.8687 136.391 69.4776C136.391 70.3323 136.532 71.0613 136.814 71.6648C137.096 72.2683 137.476 72.7587 137.954 73.1355C138.432 73.513 139.002 73.7891 139.663 73.9653C140.325 74.141 141.036 74.2295 141.796 74.2295C142.531 74.2295 143.253 74.1287 143.965 73.9276C144.675 73.7261 145.307 73.4242 145.858 73.0225C146.41 72.6205 146.857 72.1109 147.2 71.4951C147.543 70.8788 147.715 70.1434 147.715 69.2893ZM134.663 53.149C134.663 52.0929 134.847 51.1821 135.215 50.4147C135.582 49.6484 136.091 49.0135 136.741 48.5102C137.39 48.008 138.138 47.6309 138.983 47.3791C139.829 47.1282 140.73 47.002 141.685 47.002C142.151 47.002 142.598 47.0151 143.027 47.04C143.456 47.0652 144.002 47.103 144.663 47.153C145.227 47.2034 145.73 47.2409 146.17 47.2658C146.612 47.2909 146.967 47.3035 147.237 47.3035C148.609 47.3035 149.602 47.2409 150.214 47.1153C150.19 47.2409 150.172 47.3731 150.16 47.5113C150.147 47.6495 150.141 47.7814 150.141 47.907C150.141 48.0332 150.147 48.1651 150.16 48.3027C150.172 48.4415 150.19 48.5737 150.214 48.699C149.504 48.649 148.812 48.5923 148.138 48.5293C147.463 48.467 146.796 48.4226 146.134 48.3971L146.061 48.4724C146.82 48.9008 147.433 49.5606 147.899 50.4525C148.364 51.3449 148.597 52.2691 148.597 53.2242C148.597 55.1099 147.978 56.5872 146.741 57.655C145.503 58.7244 143.842 59.258 141.759 59.258C141.415 59.258 141.079 59.2457 140.748 59.2202C140.417 59.1956 140.08 59.1827 139.737 59.1827C139.296 59.1827 138.885 59.3467 138.505 59.6732C138.125 60.0002 137.935 60.4145 137.935 60.9176C137.935 61.5714 138.088 62.0487 138.395 62.3502C138.701 62.6518 139.271 62.8158 140.105 62.8407C140.79 62.8659 141.465 62.8851 142.127 62.8974C142.788 62.9102 143.462 62.9288 144.149 62.9537C145.276 62.9792 146.238 63.1174 147.035 63.3686C147.831 63.6204 148.481 63.9598 148.983 64.3867C149.485 64.8148 149.853 65.304 150.086 65.8574C150.319 66.4102 150.435 67.0137 150.435 67.6675C150.435 68.5474 150.27 69.4401 149.939 70.3452C149.608 71.2502 149.094 72.0671 148.395 72.7962C147.696 73.5256 146.796 74.1287 145.693 74.6063C144.59 75.0838 143.267 75.3231 141.722 75.3231C139.344 75.3231 137.47 74.8386 136.097 73.8709C134.724 72.9032 134.038 71.5767 134.038 69.8928C134.038 69.2384 134.154 68.6349 134.388 68.0827C134.621 67.5293 134.921 67.0389 135.288 66.612C135.656 66.1839 136.072 65.8445 136.539 65.5933C137.004 65.3418 137.482 65.1541 137.972 65.0276V64.9524C137.212 64.726 136.636 64.3489 136.244 63.821C135.852 63.2934 135.656 62.6653 135.656 61.9356C135.656 61.5085 135.735 61.1187 135.895 60.7665C136.054 60.4145 136.257 60.1007 136.502 59.8237C136.746 59.5473 137.028 59.3209 137.347 59.145C137.665 58.9693 137.972 58.8563 138.266 58.8056V58.7301C137.139 58.2276 136.257 57.5174 135.619 56.5995C134.981 55.6822 134.663 54.5322 134.663 53.149Z" fill="black"/>
<path d="M17.4193 51.4077V52.9993H1.44653L1.46611 51.4077H17.4193Z" fill="black"/>
<path d="M8.66455 44.0137H10.2165V60.3974L8.66455 60.3773V44.0137Z" fill="black"/>
<path d="M31.1521 14.6284L32.5239 15.8135L17.1424 34.5433L15.7896 33.3355L31.1521 14.6284Z" fill="black"/>
<path d="M90.5123 49.0386L91.3929 50.4484L82.8071 56.0913L81.9368 54.6742L90.5123 49.0386Z" fill="black"/>
<path d="M83.8037 55.1054C83.3793 55.3881 83.0827 55.5842 82.9117 55.6927C82.8278 55.5188 82.7425 55.3551 82.6583 55.2028C82.5729 55.0505 82.456 54.8985 82.3079 54.7454C82.7319 54.4839 83.1934 54.2019 83.6926 53.8967C84.1903 53.5924 84.6848 53.2764 85.172 52.9497V49.7165C85.172 48.9769 85.1677 48.1714 85.1571 47.3003C85.1466 46.4303 85.13 45.5693 85.1092 44.7206C85.0882 43.871 85.0613 43.061 85.0297 42.2876C84.9981 41.515 84.9607 40.8561 84.9187 40.312C85.5122 40.4211 85.9889 40.4757 86.3501 40.4757C86.7114 40.4757 87.1895 40.4211 87.7831 40.312C87.741 40.8561 87.7036 41.515 87.6724 42.2876C87.6408 43.061 87.6136 43.871 87.5929 44.7206C87.5701 45.5693 87.5552 46.4303 87.5449 47.3003C87.5341 48.1714 87.5283 48.9769 87.5283 49.7165V51.3824C87.9959 51.0778 88.4141 50.8005 88.7859 50.5499C89.1576 50.2993 89.5022 50.0547 89.8202 49.8148C89.8202 49.9893 89.8784 50.1686 89.9956 50.3535C90.1125 50.5391 90.2457 50.6968 90.3942 50.8272C90.1393 51.002 89.7737 51.2247 89.2956 51.4969C88.8174 51.7691 88.2297 52.1334 87.5283 52.5908V55.627C87.5283 56.3675 87.5341 57.173 87.5449 58.0439C87.5552 58.915 87.5701 59.7745 87.5929 60.6238C87.6136 61.4725 87.6408 62.278 87.6724 63.0401C87.7036 63.8024 87.741 64.4337 87.7831 64.9341C87.2945 64.8903 86.8178 64.8687 86.3501 64.8687C85.884 64.8687 85.4059 64.8903 84.9187 64.9341C84.9607 64.4337 84.9981 63.8024 85.0297 63.0401C85.0613 62.278 85.0882 61.4725 85.1092 60.6238C85.13 59.7745 85.1466 58.915 85.1571 58.0439C85.1677 57.173 85.172 56.3675 85.172 55.627V54.1905C84.6848 54.5172 84.2277 54.8224 83.8037 55.1054Z" fill="black"/>
</svg>
